<svg width="104" height="102" viewBox="0 0 104 102" fill="none" xmlns="http://www.w3.org/2000/svg">
<path d="M95.4327 45.5669L8.02832 45.4711L8.01854 54.3916L95.423 54.4875L95.4327 45.5669Z" fill="#868687"/>
<path d="M39.2371 33.7305L39.1913 68.1342C39.2223 69.9023 37.7498 71.3638 36.0346 71.3273L26.2016 71.3583C24.4335 71.3893 22.972 69.9168 23.0085 68.2016L23.0158 66.2456L16.2372 66.2729C14.4692 66.3039 13.0076 64.8314 13.0441 63.1163L13.0442 38.9214C13.0132 37.1534 14.4857 35.6918 16.2009 35.7283L22.9795 35.701L22.9868 33.745C22.9558 31.9769 24.4283 30.5153 26.1434 30.5519L35.9765 30.5209C37.8121 30.5428 39.2061 31.9624 39.2371 33.7305Z" fill="#B0B1B3"/>
<path d="M90.3985 38.9545L90.3163 62.976C90.3473 64.7441 88.8748 66.2056 87.1596 66.1691L80.4339 66.129L80.4266 68.085C80.4576 69.8531 78.9851 71.3146 77.27 71.2781L67.437 71.3091C65.6689 71.3401 64.2073 69.8676 64.2438 68.1524L64.2367 33.8162C64.2057 32.0481 65.6782 30.5866 67.3934 30.6231L77.2264 30.5921C78.9945 30.5611 80.456 32.0336 80.4195 33.7488L80.4122 35.7048L87.1379 35.745C88.9735 35.7669 90.3675 37.1864 90.3985 38.9545Z" fill="#B0B1B3"/>
<path d="M22.9411 35.7216L21.1396 35.7195L21.1045 66.0861L22.9059 66.0882L22.9411 35.7216Z" fill="#868687"/>
<path d="M82.278 35.766L80.4766 35.7639L80.4414 66.1305L82.2428 66.1326L82.278 35.766Z" fill="#868687"/>
</svg>
