<svg width="16" height="24" viewBox="0 0 16 24" fill="none" xmlns="http://www.w3.org/2000/svg">
<path d="M9 15.769C11.019 15.5253 12.8653 14.5536 14.1628 13.0516C15.4604 11.5497 16.1117 9.63045 15.9843 7.6846C15.8568 5.73874 14.9602 3.91255 13.4769 2.57778C11.9935 1.24301 10.035 0.5 8 0.5C5.965 0.5 4.00648 1.24301 2.52314 2.57778C1.0398 3.91255 0.143151 5.73874 0.0157134 7.6846C-0.111725 9.63045 0.539632 11.5497 1.83719 13.0516C3.13474 14.5536 4.98096 15.5253 7 15.769V17.7516H2.00001V19.6677H7V23.5H9V19.6677H14V17.7516H9V15.769ZM2.00001 8.17085C2.00001 7.03392 2.3519 5.92252 3.01119 4.9772C3.67048 4.03187 4.60755 3.29508 5.7039 2.86C6.80026 2.42491 8.00666 2.31107 9.17054 2.53288C10.3344 2.75468 11.4035 3.30217 12.2426 4.1061C13.0817 4.91003 13.6532 5.9343 13.8847 7.04939C14.1162 8.16448 13.9974 9.32029 13.5433 10.3707C13.0891 11.4211 12.3201 12.3189 11.3334 12.9505C10.3467 13.5821 9.18669 13.9193 8 13.9193C6.40924 13.9176 4.88413 13.3114 3.75929 12.2338C2.63446 11.1561 2.00176 9.69492 2.00001 8.17085Z" fill="#317245"/>
</svg>
