<svg width="19" height="16" viewBox="0 0 19 16" fill="none" xmlns="http://www.w3.org/2000/svg">
<path d="M18.679 1.544L17.764 0.0799983C13.738 2.886 10.688 6.973 10.749 11.304C10.81 14.171 12.64 16.001 14.714 16.001C17.093 16.001 18.252 14.11 18.252 12.341C18.252 10.694 16.91 8.986 14.958 8.986C14.531 8.986 14.165 9.047 13.799 9.169C14.104 6.424 15.934 3.801 18.679 1.544ZM8.614 1.544L7.577 0.140997C3.612 2.886 0.623 6.912 0.623 11.304C0.623 14.232 2.514 16.001 4.588 16.001C6.967 16.001 8.065 14.11 8.065 12.341C8.065 10.694 6.784 8.986 4.71 8.986C4.405 8.986 4.039 9.047 3.673 9.23C3.978 6.424 5.808 3.801 8.614 1.544Z" fill="#04333E"/>
</svg>
