<svg width="24" height="24" viewBox="0 0 24 24" fill="none" xmlns="http://www.w3.org/2000/svg">
<path d="M7 8C7 5.23858 9.23858 3 12 3C14.7614 3 17 5.23858 17 8C17 10.7614 14.7614 13 12 13C9.23858 13 7 10.7614 7 8ZM12 11C13.6569 11 15 9.65685 15 8C15 6.34315 13.6569 5 12 5C10.3431 5 9 6.34315 9 8C9 9.65685 10.3431 11 12 11Z" fill="white"/>
<path d="M6.34315 16.3431C5.0799 17.6064 4.28276 19.2486 4.06239 21.0026C3.99355 21.5505 4.44772 22 5 22C5.55228 22 5.9915 21.5492 6.08312 21.0046C6.28871 19.7825 6.86956 18.6452 7.75736 17.7574C8.88258 16.6321 10.4087 16 12 16C13.5913 16 15.1174 16.6321 16.2426 17.7574C17.1304 18.6452 17.7113 19.7825 17.9169 21.0046C18.0085 21.5492 18.4477 22 19 22C19.5523 22 20.0065 21.5505 19.9376 21.0026C19.7172 19.2486 18.9201 17.6064 17.6569 16.3431C16.1566 14.8429 14.1217 14 12 14C9.87827 14 7.84344 14.8429 6.34315 16.3431Z" fill="white"/>
</svg>
