<svg width="72" height="72" viewBox="0 0 72 72" fill="none" xmlns="http://www.w3.org/2000/svg">
<circle cx="36" cy="36" r="36" transform="rotate(-180 36 36)" fill="#D84435" fill-opacity="0.2"/>
<path d="M47.9 22L46.35 22L46.35 41.8421L47.9 41.8421C49.6112 41.8421 51 40.4745 51 38.7895L51 25.0526C51 23.3676 49.6112 22 47.9 22ZM23.1 41.8421L33.95 41.8421L32.2109 46.9827C31.5413 48.9593 33.0355 51 35.1512 51L35.5 51L43.25 42.6999L43.25 22L26.2 22L20.1364 35.1202C20.0977 35.2927 20.0372 35.5628 20 35.7368L20 38.7895C20 40.4745 21.3888 41.8421 23.1 41.8421Z" fill="#D84435"/>
</svg>
