<svg width="103" height="94" viewBox="0 0 103 94" fill="none" xmlns="http://www.w3.org/2000/svg">
<path fill-rule="evenodd" clip-rule="evenodd" d="M0.0005252 41.4504C0.00017519 41.5287 0 41.607 0 41.6853C0 70.0776 23.0165 93.0941 51.4088 93.0941C79.8011 93.0941 102.818 70.0776 102.818 41.6853C102.818 41.607 102.817 41.5287 102.817 41.4504H0.0005252Z" fill="#317245"/>
<path fill-rule="evenodd" clip-rule="evenodd" d="M48.8372 32.1836C48.8373 32.159 48.8374 32.1344 48.8374 32.1098C48.8374 23.1311 41.5587 15.8524 32.5799 15.8524C23.6012 15.8524 16.3224 23.1311 16.3224 32.1098C16.3224 32.1344 16.3225 32.159 16.3226 32.1836L48.8372 32.1836Z" fill="#F1514B"/>
<circle cx="73.2114" cy="16.1494" r="16.1494" fill="#FE9C29"/>
</svg>
