<svg width="117" height="40" viewBox="0 0 117 40" fill="none" xmlns="http://www.w3.org/2000/svg">
<path d="M10.0481 31.533C13.1231 31.533 15.7471 30.18 16.9771 27.843L17.3051 31H21.8971V0.495999H16.9361V13.329C15.6651 11.32 13.1641 10.131 10.3351 10.131C4.22609 10.131 0.53609 14.641 0.53609 20.955C0.53609 27.228 4.18509 31.533 10.0481 31.533ZM11.1551 26.941C7.67009 26.941 5.53809 24.399 5.53809 20.791C5.53809 17.183 7.67009 14.6 11.1551 14.6C14.6401 14.6 16.8951 17.142 16.8951 20.791C16.8951 24.44 14.6401 26.941 11.1551 26.941ZM29.6109 6.687C31.2509 6.687 32.6039 5.334 32.6039 3.653C32.6039 1.972 31.2509 0.66 29.6109 0.66C27.8889 0.66 26.5359 1.972 26.5359 3.653C26.5359 5.334 27.8889 6.687 29.6109 6.687ZM27.1099 31H32.1119V10.746H27.1099V31ZM46.3408 31.533C51.6298 31.533 55.3198 28.868 56.1808 24.44H51.5478C50.9738 26.367 49.1698 27.433 46.4228 27.433C43.1018 27.433 41.2158 25.629 40.8468 22.062L56.0988 22.021V20.504C56.0988 14.19 52.2448 10.131 46.1768 10.131C40.2318 10.131 36.0908 14.518 36.0908 20.873C36.0908 27.146 40.3138 31.533 46.3408 31.533ZM46.2178 14.231C49.2108 14.231 51.1378 16.076 51.1378 18.864H40.9698C41.4618 15.83 43.2658 14.231 46.2178 14.231ZM66.7898 31V14.928H70.7258V10.746H66.7898V4.432H61.7878V10.746H57.8928V14.928H61.7878V31H66.7898Z" fill="#04333E"/>
<path d="M88.1444 11.156V21.693C88.1444 26.408 85.8894 28.95 82.0764 28.95C78.9194 28.95 76.8284 27.269 76.8284 22.554V11.115H73.9584V23.456C73.9584 28.294 76.5004 31.492 81.1744 31.492C84.2904 31.492 87.0374 29.934 88.1444 27.638L88.5134 31H90.9734V11.156H88.1444ZM96.8666 39.651H99.6956V27.187C101.09 30.057 103.755 31.492 107.117 31.492C112.98 31.492 116.301 26.982 116.301 20.996C116.301 15.01 112.857 10.623 107.117 10.623C103.796 10.623 101.008 12.099 99.6136 15.174L99.3266 11.156H96.8666V39.651ZM99.7366 21.078C99.7366 16.486 102.279 13.206 106.625 13.206C110.93 13.206 113.431 16.486 113.431 21.078C113.431 25.629 110.93 28.95 106.625 28.95C102.279 28.95 99.7366 25.629 99.7366 21.078Z" fill="#35B86D"/>
</svg>
