<svg width="22" height="22" viewBox="0 0 22 22" fill="none" xmlns="http://www.w3.org/2000/svg">
<path d="M12.8547 0V1.82907H18.8777L11.8464 8.86047C10.3714 7.71445 8.51501 7.17373 6.65531 7.34841C4.7956 7.52308 3.0724 8.40002 1.83659 9.80065C0.600774 11.2013 -0.0547205 13.0203 0.00358056 14.8873C0.0618817 16.7542 0.829594 18.5288 2.15039 19.8496C3.47119 21.1704 5.24575 21.9381 7.11273 21.9964C8.97971 22.0547 10.7987 21.3992 12.1993 20.1634C13.6 18.9276 14.4769 17.2044 14.6516 15.3447C14.8263 13.485 14.2855 11.6286 13.1395 10.1536L20.1709 3.12231V9.14534H22V0H12.8547ZM7.36745 20.1198C6.28218 20.1198 5.22129 19.7979 4.31892 19.195C3.41656 18.5921 2.71325 17.7351 2.29793 16.7324C1.88262 15.7298 1.77395 14.6265 1.98568 13.562C2.1974 12.4976 2.72001 11.5199 3.48741 10.7525C4.25481 9.98511 5.23254 9.4625 6.29695 9.25078C7.36136 9.03905 8.46466 9.14772 9.46731 9.56303C10.47 9.97834 11.327 10.6817 11.9299 11.584C12.5328 12.4864 12.8547 13.5473 12.8547 14.6325C12.8531 16.0874 12.2744 17.4821 11.2457 18.5108C10.217 19.5395 8.82226 20.1182 7.36745 20.1198Z" fill="#317245"/>
</svg>
