<svg width="22" height="22" viewBox="0 0 22 22" fill="none" xmlns="http://www.w3.org/2000/svg">
<path d="M16.7164 2.82692L16.8447 2.69866L16.6946 2.59676C15.0707 1.49422 13.1104 0.85 11 0.85C5.39433 0.85 0.85 5.39432 0.85 11C0.85 13.1104 1.49422 15.0708 2.59676 16.6946L2.69866 16.8447L2.82693 16.7164L3.86291 15.6804L3.94777 15.5956L3.88359 15.4942C3.06077 14.1939 2.58444 12.6528 2.58444 11C2.58444 6.35222 6.35223 2.58442 11 2.58442C12.6529 2.58442 14.194 3.06077 15.4941 3.88359L15.5956 3.94777L15.6804 3.8629L16.7164 2.82692ZM18.1374 6.32005L18.0525 6.40492L18.1167 6.50633C18.9394 7.8064 19.4156 9.34735 19.4156 11C19.4156 15.6478 15.6478 19.4156 11 19.4156C9.34737 19.4156 7.80641 18.9394 6.50634 18.1167L6.40493 18.0525L6.32007 18.1374L5.28407 19.1734L5.15579 19.3016L5.30589 19.4035C6.92965 20.5058 8.88984 21.15 11 21.15C16.6057 21.15 21.15 16.6056 21.15 11C21.15 8.88983 20.506 6.92964 19.4035 5.30587L19.3016 5.15579L19.1734 5.28406L18.1374 6.32005ZM19.9448 3.33551L19.9448 3.3355C20.2981 2.98208 20.2981 2.40912 19.9448 2.05571L19.9448 2.05568C19.5913 1.70231 19.0183 1.70227 18.665 2.05571L2.05569 18.665C1.70222 19.0183 1.70226 19.5913 2.05566 19.9448L2.05568 19.9448C2.40909 20.2981 2.98205 20.2981 3.33546 19.9448L3.33547 19.9448L19.9448 3.33551Z" fill="#317245" stroke="#317245" stroke-width="0.3"/>
</svg>
