<svg width="136" height="200" viewBox="0 0 136 200" fill="none" xmlns="http://www.w3.org/2000/svg">
<path d="M186.632 89.1128L15.7002 88.9254L15.6811 106.371L186.613 106.558L186.632 89.1128Z" fill="#868687"/>
<path d="M76.734 65.9648L76.6445 133.246C76.7051 136.704 73.8254 139.562 70.4712 139.491L51.2412 139.552C47.7835 139.612 44.9253 136.733 44.9966 133.378L45.0109 129.553L31.7544 129.606C28.2967 129.667 25.4384 126.787 25.5098 123.433L25.5101 76.1166C25.4494 72.6588 28.3291 69.8006 31.6834 69.8719L44.9399 69.8185L44.9542 65.9932C44.8935 62.5354 47.7732 59.6772 51.1275 59.7486L70.3574 59.688C73.9472 59.7309 76.6734 62.5071 76.734 65.9648Z" fill="#B0B1B3"/>
<path d="M176.787 76.1813L176.627 123.159C176.687 126.617 173.808 129.475 170.453 129.403L157.3 129.325L157.286 133.15C157.347 136.608 154.467 139.466 151.113 139.395L131.883 139.455C128.425 139.516 125.567 136.636 125.638 133.282L125.624 66.1325C125.564 62.6748 128.443 59.8165 131.797 59.8879L151.027 59.8273C154.485 59.7667 157.343 62.6464 157.272 66.0006L157.258 69.8259L170.411 69.9045C174.001 69.9473 176.727 72.7235 176.787 76.1813Z" fill="#B0B1B3"/>
<path d="M44.8642 69.8588L41.3413 69.8547L41.2725 129.241L44.7955 129.245L44.8642 69.8588Z" fill="#868687"/>
</svg>
