<svg width="66" height="132" viewBox="0 0 66 132" fill="none" xmlns="http://www.w3.org/2000/svg">
<path d="M107.737 62.0871C111.45 86.279 110.473 134.325 54.3786 130.772C-1.32463 135.34 -0.738278 87.4633 0.238972 62.4255C1.02077 38.741 26.6247 30.959 42.0653 37.0493C48.3197 39.5869 53.0105 44.3238 56.1377 44.3238C59.0695 44.1546 60.8285 42.4629 64.3466 41.1095C78.419 35.6959 104.414 39.4178 107.737 62.0871Z" fill="#FF734D"/>
<path d="M36.594 3.21396C43.4347 5.75157 53.2072 20.6389 53.2072 21.9923C53.2072 23.5149 32.8804 27.0676 26.0397 24.5299C19.1989 21.9923 7.66735 6.76663 7.8628 5.07488C8.05825 3.72149 29.7532 0.845514 36.594 3.21396Z" fill="#80CF99"/>
<path d="M36.5921 3.2144C43.4329 5.75202 53.2054 20.6394 53.2054 21.9928C53.2054 23.5153 7.66553 6.76707 7.86098 5.2445C8.05643 3.72193 29.7514 0.845962 36.5921 3.2144Z" fill="#8AD6A3"/>
<path d="M32.4883 63.2709C24.084 67.5003 21.5431 77.8199 19.9795 82.2185C19.3932 83.9102 17.8296 82.726 17.8296 82.726C17.8296 82.726 13.7251 68.8537 13.7251 61.9176C13.7251 54.8122 20.9568 49.0603 29.752 49.0603C38.5473 48.8911 39.72 59.7183 32.4883 63.2709Z" fill="white"/>
<path d="M74.3156 4.39853C74.3156 1.86092 71.9702 0 69.2339 0C67.084 0 65.3249 1.01504 64.5431 2.70679C63.7613 3.21431 63.175 3.55266 62.3932 4.22936C62.0023 4.56771 61.4159 5.07522 60.8296 5.58275C60.4387 6.09027 59.8523 6.5978 59.266 7.10532C58.8751 7.61284 58.2887 8.28954 57.8978 8.96623C57.5069 9.64293 57.116 10.3196 56.5297 10.9963C55.7479 12.3497 55.1615 14.0415 54.5752 15.564C53.9888 17.0866 53.7934 18.7784 53.5979 20.4701C53.4025 22.1618 53.207 23.8536 53.207 25.5453C53.207 32.1431 54.3797 38.5717 54.7706 42.9703C54.7706 44.1545 54.7706 45.0004 54.7706 45.8462C54.5752 46.6921 55.7479 49.3989 55.7479 49.3989H57.5069C57.5069 49.3989 58.8751 47.538 59.0705 46.3538C59.266 45.3387 59.4614 44.1545 59.4614 42.8011C59.6569 37.8951 59.266 31.6356 59.8523 25.7145C60.0478 24.1919 60.2432 22.8385 60.6341 21.316C61.025 19.9626 61.4159 18.6092 62.0023 17.425C62.5886 16.2407 63.175 15.0565 63.7613 14.2106C64.1522 13.7031 64.5431 13.3648 64.7386 12.8572C65.1295 12.5189 65.5204 12.0114 65.9113 11.673C66.3022 11.3347 66.6931 10.9963 67.084 10.658C67.4749 10.3196 67.8658 10.1505 68.2567 9.98128C69.0385 9.47375 69.4294 9.30458 70.0157 8.96623C70.4066 8.79706 70.6021 8.62789 70.7975 8.62789C72.752 8.12037 74.3156 6.42862 74.3156 4.39853Z" fill="#3B4957"/>
</svg>
