<svg width="182" height="164" viewBox="0 0 182 164" fill="none" xmlns="http://www.w3.org/2000/svg">
<circle cx="84.3704" cy="83.5001" r="66.5" transform="rotate(-13.7148 84.3704 83.5001)" fill="#35B86D" fill-opacity="0.2"/>
<path d="M69.1467 113.836L71.9282 113.157L63.2382 77.549L60.4567 78.2278C57.3858 78.9772 55.4925 82.0397 56.2305 85.0636L62.2466 109.715C62.9846 112.739 66.0758 114.585 69.1467 113.836ZM104.962 67.3665L85.4907 72.1183L86.3603 62.1315C86.6962 58.2912 83.1211 55.2835 79.3243 56.2101L78.6984 56.3628L68.4257 74.6519L77.4913 111.799L108.088 104.332L113.224 78.1313C113.218 77.8049 113.208 77.2936 113.199 76.965L111.862 71.4869C111.124 68.463 108.032 66.617 104.962 67.3665Z" fill="#35B86D"/>
<path d="M60.2689 159.923C60.2689 162.036 58.554 163.741 56.4489 163.741C54.3438 163.741 52.6289 162.027 52.6289 159.923C52.6289 157.819 54.3438 156.105 56.4489 156.105C58.554 156.105 60.2689 157.819 60.2689 159.923Z" fill="#E3A63B"/>
<path d="M181.252 79.7299C181.252 81.8199 179.552 83.5199 177.462 83.5199C175.372 83.5199 173.672 81.8199 173.672 79.7299C173.672 77.6399 175.372 75.9399 177.462 75.9399C179.552 75.9399 181.252 77.6399 181.252 79.7299Z" fill="#E3A63B"/>
<path d="M58.2026 3.79C58.2026 5.89 56.5026 7.58 54.4126 7.58C52.3226 7.58 50.6226 5.88 50.6226 3.79C50.6226 1.7 52.3226 0 54.4126 0C56.5026 0 58.2026 1.7 58.2026 3.79Z" fill="#6CBA8E"/>
<path d="M131.58 60.79C131.58 62.89 129.88 64.58 127.79 64.58C125.7 64.58 124 62.88 124 60.79C124 58.7 125.7 57 127.79 57C129.88 57 131.58 58.7 131.58 60.79Z" fill="#6CBA8E"/>
<path d="M121.53 126.06C122.927 126.06 124.06 124.927 124.06 123.53C124.06 122.133 122.927 121 121.53 121C120.133 121 119 122.133 119 123.53C119 124.927 120.133 126.06 121.53 126.06Z" fill="#D64B4D"/>
<path d="M2.53001 70.06C3.92729 70.06 5.06001 68.9273 5.06001 67.53C5.06001 66.1327 3.92729 65 2.53001 65C1.13273 65 0 66.1327 0 67.53C0 68.9273 1.13273 70.06 2.53001 70.06Z" fill="#D64B4D"/>
</svg>
