<svg width="49" height="58" viewBox="0 0 49 58" fill="none" xmlns="http://www.w3.org/2000/svg">
<path d="M48.4408 27.4729C50.084 38.1775 49.6516 59.4372 24.8305 57.8651C0.182421 59.8863 0.441875 38.7015 0.874297 27.6226C1.22024 17.1425 12.5497 13.699 19.382 16.3939C22.1495 17.5168 24.2251 19.6128 25.6089 19.6128C26.9061 19.538 27.6845 18.7894 29.2412 18.1905C35.4681 15.7951 46.9705 17.4419 48.4408 27.4729Z" fill="#FF734D"/>
<path d="M24.9169 57.7902C0.268844 59.8114 0.528301 38.6266 0.960723 27.5476C1.30666 17.0676 12.6361 13.6241 19.4684 16.319C22.2359 17.4418 24.3115 19.5379 25.6953 19.5379L24.9169 57.7902Z" fill="#FF7857"/>
<path d="M16.9609 1.42212C19.9878 2.54499 24.3121 9.13248 24.3121 9.73134C24.3121 10.4051 15.3177 11.9771 12.2907 10.8542C9.26377 9.73134 4.16118 2.99414 4.24767 2.24557C4.33415 1.6467 13.9339 0.374116 16.9609 1.42212Z" fill="#80CF99"/>
<path d="M16.9601 1.4223C19.987 2.54517 24.3113 9.13266 24.3113 9.73152C24.3113 10.4052 4.16038 2.99432 4.24686 2.3206C4.33334 1.64688 13.9331 0.374295 16.9601 1.4223Z" fill="#8AD6A3"/>
<path d="M15.1443 27.9967C11.4255 29.8681 10.3012 34.4344 9.6093 36.3807C9.34985 37.1293 8.65798 36.6053 8.65798 36.6053C8.65798 36.6053 6.8418 30.467 6.8418 27.3978C6.8418 24.2538 10.0417 21.7086 13.9335 21.7086C17.8253 21.6338 18.3442 26.4247 15.1443 27.9967Z" fill="white"/>
<path d="M33.6523 1.9463C33.6523 0.823434 32.6145 0 31.4037 0C30.4524 0 29.674 0.449146 29.3281 1.19772C28.9822 1.4223 28.7227 1.57201 28.3768 1.87144C28.2038 2.02116 27.9444 2.24573 27.6849 2.4703C27.5119 2.69488 27.2525 2.91945 26.993 3.14402C26.8201 3.3686 26.5606 3.66803 26.3876 3.96746C26.2147 4.26689 26.0417 4.56632 25.7822 4.86576C25.4363 5.46462 25.1769 6.21319 24.9174 6.88691C24.6579 7.56063 24.5715 8.30921 24.485 9.05779C24.3985 9.80637 24.312 10.5549 24.312 11.3035C24.312 14.223 24.8309 17.0676 25.0039 19.0139C25.0039 19.5379 25.0039 19.9122 25.0039 20.2865C24.9174 20.6607 25.4363 21.8585 25.4363 21.8585H26.2147C26.2147 21.8585 26.8201 21.035 26.9065 20.511C26.993 20.0619 27.0795 19.5379 27.0795 18.939C27.166 16.7681 26.993 13.9984 27.2525 11.3784C27.339 10.7047 27.4254 10.1058 27.5984 9.43208C27.7714 8.83322 27.9444 8.23435 28.2038 7.71035C28.4633 7.18634 28.7227 6.66234 28.9822 6.28805C29.1551 6.06348 29.3281 5.91376 29.4146 5.68919C29.5876 5.53947 29.7605 5.3149 29.9335 5.16518C30.1065 5.01547 30.2794 4.86575 30.4524 4.71604C30.6254 4.56632 30.7983 4.49146 30.9713 4.4166C31.3173 4.19203 31.4902 4.11717 31.7497 3.96746C31.9226 3.8926 32.0091 3.81775 32.0956 3.81775C32.9605 3.59317 33.6523 2.84459 33.6523 1.9463Z" fill="#3B4957"/>
</svg>
