<svg width="390" height="390" viewBox="0 0 390 390" fill="none" xmlns="http://www.w3.org/2000/svg">
<g clip-path="url(#clip0_1_2)">
<path fill-rule="evenodd" clip-rule="evenodd" d="M20.0016 194.563C20.0633 194.798 20.1256 195.032 20.1885 195.267C42.9877 280.355 130.447 330.85 215.535 308.05C300.623 285.251 351.118 197.791 328.319 112.704C328.256 112.469 328.193 112.235 328.129 112L20.0016 194.563Z" fill="#E9FAB0"/>
<mask id="mask0_1_2" style="mask-type:alpha" maskUnits="userSpaceOnUse" x="26" y="-7" width="320" height="320">
<circle cx="186.347" cy="153.347" r="159.5" transform="rotate(15 186.347 153.347)" fill="#D9D9D9"/>
</mask>
<g mask="url(#mask0_1_2)">
<path d="M134.617 70.3117C134.617 70.3117 126.56 62.1153 116.746 68.5275C106.933 74.9397 112.536 87.2901 112.536 87.2901C112.536 87.2901 104.173 86.0077 100.688 92.7823C97.2029 99.5569 102.779 105.969 102.779 105.969C102.779 105.969 92.8538 106.443 90.4283 116.34C87.5289 128.049 101.385 138.532 101.385 138.532L143.12 126.767L144.012 82.244L134.645 70.3117H134.617Z" fill="black"/>
<path d="M155.248 275.028C155.248 275.028 161.855 296.941 146.41 324.764C128.735 356.658 116.468 372.772 116.468 372.772L87.2504 365.05C87.2504 365.05 113.596 299.366 114.07 272.798C114.516 246.201 155.248 275.028 155.248 275.028Z" fill="#F48462"/>
<path d="M184.548 264.49C184.548 264.49 185.831 293.177 181.955 324.765C178.08 356.352 175.236 375.031 175.236 375.031L146.326 375.114C146.326 375.114 148.863 306.113 144.151 279.963C139.44 253.784 184.548 264.49 184.548 264.49V264.49Z" fill="#F48462"/>
<path d="M190.542 300.314C190.542 339.735 184.743 367.196 184.743 367.196H137.795L137.46 347.848L129.319 368.813L84.7686 349.911C84.7686 349.911 99.0427 307.73 105.12 279.46C111.198 251.191 94.2475 231.09 111.337 188.296C126.197 151.049 166.761 175.471 166.761 175.471C166.761 175.471 190.57 221.611 190.57 300.314H190.542Z" fill="#F7C537"/>
<path d="M125.11 119.044C125.11 119.044 117.304 119.295 112.258 121.442C107.239 123.589 99.4611 139.229 99.4611 139.229L118.949 169.171L141.949 160.278L125.11 119.044V119.044Z" fill="#AF4D04"/>
<path d="M239.86 151.217C239.86 151.217 222.715 163.651 196.369 164.794C170.023 165.965 141.949 145.529 141.949 145.529L153.797 117.678C153.797 117.678 180.534 120.801 193.553 121.721C199.352 122.139 222.38 126.349 222.38 126.349L239.805 151.217H239.86Z" fill="#AF4D04"/>
<path d="M192.02 148.931C191.63 148.931 191.156 148.791 190.682 148.401C190.347 148.15 190.18 147.76 190.18 147.314C190.152 144.916 195.561 140.177 196.174 139.647C196.341 139.508 196.592 139.48 196.76 139.591C196.955 139.703 197.038 139.926 197.011 140.149C196.843 140.957 195.226 147.927 192.634 148.847C192.466 148.903 192.271 148.959 192.02 148.959V148.931ZM195.589 141.571C193.526 143.522 191.184 146.143 191.212 147.314C191.212 147.481 191.267 147.565 191.323 147.62C191.769 147.983 192.076 147.955 192.271 147.871C193.554 147.425 194.808 144.247 195.561 141.571H195.589Z" fill="white"/>
<path d="M153.825 117.678L156.669 118.431C162.523 119.964 167.235 124.23 169.41 129.889C171.361 134.991 173.09 141.654 172.532 148.429C171.389 162.564 168.211 168.781 168.211 168.781L176.268 189.69C176.268 189.69 159.094 199.894 142.06 200.256C125.026 200.619 106.319 196.66 106.319 196.66C106.319 196.66 120.761 124.007 121.346 118.096C121.736 114.11 153.825 117.678 153.825 117.678V117.678Z" fill="#AF4D04"/>
<path d="M167.43 158.243C167.43 158.243 167.235 158.243 167.152 158.159C166.901 157.992 166.817 157.685 166.984 157.434C173.229 147.37 164.531 131.73 164.447 131.562C164.308 131.311 164.392 130.977 164.643 130.838C164.893 130.698 165.228 130.782 165.367 131.033C165.73 131.702 174.484 147.398 167.904 157.992C167.793 158.159 167.626 158.243 167.458 158.243H167.43Z" fill="white"/>
<path d="M259.209 116.507C259.209 116.507 265.733 109.258 260.547 107.892C255.361 106.526 240.836 116.563 242.9 121.72C244.963 126.878 259.209 116.507 259.209 116.507Z" fill="#F77E6D"/>
<path d="M263.725 123.198C263.725 123.198 270.249 115.949 265.063 114.583C259.877 113.217 245.352 123.253 247.416 128.411C249.479 133.569 263.725 123.198 263.725 123.198Z" fill="#F77E6D"/>
<path d="M266.234 130.893C266.234 130.893 273.009 125.54 268.688 123.589C264.366 121.609 250.176 128.189 251.207 132.984C252.239 137.779 266.234 130.893 266.234 130.893Z" fill="#F77E6D"/>
<path d="M254.525 135.325C253.047 135.325 251.542 134.851 250.789 133.178C250.455 132.454 250.427 131.701 250.733 131.004C251.626 128.969 254.943 127.853 255.083 127.798L263.446 122.779C263.697 122.64 264.004 122.724 264.143 122.947C264.283 123.198 264.199 123.476 263.976 123.644L255.501 128.718C254.553 129.052 252.239 130.056 251.653 131.422C251.458 131.868 251.458 132.314 251.681 132.788C253.047 135.743 258.093 133.569 258.121 133.541C258.372 133.429 258.679 133.541 258.79 133.792C258.902 134.043 258.79 134.349 258.54 134.461C258.4 134.517 256.476 135.353 254.525 135.353V135.325Z" fill="black"/>
<path d="M250.454 130.614C250.176 130.614 249.897 130.614 249.646 130.53C248.531 130.335 247.639 129.694 246.997 128.663C245.297 125.93 249.785 121.609 250.287 121.135L260.101 114.611C260.324 114.472 260.63 114.528 260.798 114.751C260.937 114.974 260.881 115.281 260.658 115.448L250.901 121.916C249.73 123.031 246.747 126.404 247.834 128.133C248.336 128.941 248.977 129.387 249.813 129.555C252.099 129.973 254.915 127.882 254.943 127.854C255.166 127.687 255.473 127.743 255.64 127.938C255.807 128.161 255.751 128.467 255.556 128.635C255.445 128.718 252.936 130.586 250.454 130.586V130.614Z" fill="black"/>
<path d="M246.022 123.616C244.767 123.616 243.513 123.198 242.509 122.027C242.091 121.553 241.923 120.94 242.035 120.271C242.62 116.145 253.242 109.231 253.688 108.924C253.911 108.785 254.218 108.84 254.385 109.063C254.525 109.286 254.469 109.593 254.246 109.76C251.263 111.684 243.457 117.371 243.039 120.41C242.983 120.801 243.039 121.135 243.29 121.386C245.827 124.313 250.176 121.219 250.371 121.079C250.594 120.912 250.901 120.968 251.068 121.191C251.235 121.414 251.179 121.721 250.956 121.888C249.869 122.668 247.973 123.616 246.077 123.616H246.022Z" fill="black"/>
<path d="M138.548 344.112C138.548 344.112 138.436 344.112 138.38 344.112C138.101 344.029 137.934 343.722 138.018 343.443C138.157 342.969 152.543 295.017 155.08 271.069C158.091 242.716 155.108 219.297 155.08 219.074C155.052 218.851 155.164 218.628 155.359 218.517L168.769 211.659C169.047 211.519 169.354 211.631 169.493 211.882C169.633 212.132 169.521 212.467 169.27 212.606L156.195 219.297C156.557 222.42 158.955 244.64 156.139 271.18C153.602 295.24 139.161 343.276 139.022 343.75C138.966 343.973 138.743 344.14 138.52 344.14L138.548 344.112Z" fill="#507849"/>
<path d="M230.493 89.5204C240.055 70.8413 252.768 40.7319 289.987 55.6472C328.153 70.9807 305.934 134.294 300.943 167.303C295.953 200.34 278.696 288.354 203.45 272.212C128.204 256.07 134.254 178.706 162.719 149.293C191.183 119.881 220.93 108.227 230.493 89.5482V89.5204Z" fill="#317245"/>
<path d="M225.057 84.1674C234.619 65.4883 254.581 36.8007 289.959 55.647C325.338 74.5212 300.497 128.913 295.507 161.95C290.517 194.987 273.26 283.001 198.014 266.859C122.768 250.717 128.818 173.353 157.282 143.912C185.747 114.472 215.494 102.846 225.057 84.1674V84.1674Z" fill="#8AC19A"/>
<path d="M232.342 216.553C247.301 201.594 247.301 177.34 232.342 162.38C217.382 147.421 193.128 147.421 178.169 162.38C163.209 177.34 163.209 201.594 178.169 216.553C193.128 231.512 217.382 231.512 232.342 216.553Z" fill="#B75542"/>
<path d="M246.969 62.9787C246.969 62.9787 246.746 62.9508 246.663 62.8672C246.44 62.6999 246.384 62.3654 246.551 62.1145C246.607 62.0308 253.521 52.8307 267.042 52.9701C267.349 52.9701 267.572 53.221 267.572 53.4998C267.572 53.7786 267.321 54.0295 267.042 54.0295C266.959 54.0295 266.847 54.0295 266.764 54.0295C253.967 54.0295 247.471 62.6442 247.388 62.7557C247.276 62.8951 247.109 62.9787 246.969 62.9787V62.9787Z" fill="#EAD8CE"/>
<path d="M190.152 163.455C189.984 163.455 189.789 163.372 189.706 163.204C189.566 162.953 189.622 162.619 189.873 162.479C189.984 162.396 202.14 155.175 217.222 160.444C217.501 160.528 217.641 160.835 217.557 161.113C217.473 161.392 217.167 161.532 216.888 161.448C202.279 156.346 190.57 163.316 190.431 163.399C190.347 163.455 190.235 163.483 190.152 163.483V163.455Z" fill="#C9B1A6"/>
<path d="M243.122 195.237C239.944 216.147 220.401 230.505 199.491 227.326C181.147 224.538 167.849 209.149 166.984 191.334C172.253 202.486 182.764 210.85 195.839 212.857C216.776 216.035 236.292 201.678 239.47 180.768C239.86 178.203 240 175.638 239.888 173.129C243.039 179.792 244.321 187.403 243.122 195.237V195.237Z" fill="#9B453A"/>
<path d="M161.576 93.6183C161.576 93.6183 170.441 81.6024 153.742 71.2871C137.042 60.9718 124.106 73.8241 123.716 80.9611C123.326 88.0982 127.256 91.5552 127.256 91.5552C127.256 91.5552 125.11 106.972 140.025 106.471C154.94 105.941 161.576 93.6183 161.576 93.6183V93.6183Z" fill="black"/>
<path d="M138.715 103.934L137.934 116.424C137.934 116.424 139.969 120.159 147.246 121.191C152.654 121.972 154.662 120.856 154.662 120.856L154.299 114.472L153.937 108.255L140.917 104.547L138.743 103.934H138.715Z" fill="#F77E6D"/>
<path d="M138.771 103.348C138.771 103.683 138.883 104.101 139.05 104.575C141.475 110.987 151.149 114.026 154.272 114.5L153.909 108.283L138.743 103.348H138.771Z" fill="black"/>
<path d="M158.454 79.958C158.454 79.958 164.057 96.0442 160.935 104.575C157.813 113.134 149.951 111.127 145.323 109.092C140.695 107.029 138.715 103.934 138.715 103.934C138.715 103.934 134.143 105.105 131.495 100.728C128.846 96.3509 131.049 91.7508 133.669 90.8587C136.29 89.9666 139.161 92.0296 139.161 92.0296L137.154 87.318C137.154 87.318 148.891 65.1263 158.482 79.9301L158.454 79.958Z" fill="#F77E6D"/>
<path d="M160.182 86.5097L157.06 85.729C156.781 85.6454 156.614 85.3666 156.67 85.0878C156.753 84.809 157.032 84.6418 157.311 84.6975L160.294 85.4502C160.573 85.5339 160.74 85.8127 160.684 86.0915C160.628 86.3424 160.405 86.4818 160.154 86.4818L160.182 86.5097Z" fill="black"/>
<path d="M148.724 86.6491C148.501 86.6491 148.278 86.5097 148.222 86.2588C148.138 85.98 148.306 85.6733 148.585 85.5897L152.265 84.4466C152.543 84.363 152.85 84.5024 152.934 84.8091C153.017 85.0879 152.85 85.3945 152.571 85.4782L148.891 86.6212C148.891 86.6212 148.78 86.6212 148.724 86.6212V86.6491Z" fill="black"/>
<path d="M156.558 98.8875C156.168 98.8318 155.973 98.5251 156.028 98.2463C157.004 93.479 155.22 90.8305 155.22 90.8026C155.053 90.5517 155.108 90.2171 155.359 90.0498C155.582 89.8826 155.917 89.9383 156.112 90.1892C156.196 90.3008 158.175 93.2002 157.088 98.4415C157.032 98.6924 156.809 98.8596 156.558 98.8596V98.8875Z" fill="black"/>
<path d="M138.604 98.386C138.604 98.386 138.409 98.386 138.325 98.3024L132.359 94.8453C132.108 94.706 132.025 94.3714 132.164 94.1205C132.303 93.8696 132.638 93.7859 132.889 93.9253L138.855 97.3823C139.106 97.5217 139.189 97.8563 139.05 98.1072C138.939 98.2745 138.771 98.386 138.576 98.386H138.604Z" fill="black"/>
<path d="M132.889 99.3056C132.721 99.3056 132.582 99.2499 132.471 99.1105C132.275 98.8874 132.331 98.5529 132.554 98.3577L135.593 95.9044C135.816 95.7092 136.151 95.765 136.346 95.988C136.541 96.211 136.485 96.5456 136.262 96.7408L133.223 99.1941C133.223 99.1941 133 99.3056 132.889 99.3056Z" fill="black"/>
<path d="M161.576 93.6183C161.576 93.6183 160.767 88.7673 156.363 83.1078L151.958 77.4484C151.958 77.4484 151.539 87.2618 146.744 91.0534C141.949 94.8449 139.133 92.0292 139.133 92.0292L131.494 83.8606L147.748 71.6216C147.748 71.6216 164.475 72.6253 161.576 93.6183Z" fill="black"/>
<path d="M151.819 92.838C151.568 92.838 151.345 92.6708 151.289 92.4199L150.871 90.2174C150.871 90.2174 150.871 90.0223 150.871 89.9386L151.568 87.9871C151.679 87.7083 151.958 87.5689 152.237 87.6525C152.516 87.764 152.655 88.0428 152.571 88.3216L151.93 90.1338L152.32 92.1968C152.376 92.4756 152.181 92.7544 151.902 92.8102C151.874 92.8102 151.847 92.8102 151.791 92.8102L151.819 92.838Z" fill="black"/>
<path d="M159.596 92.5309C159.345 92.5309 159.122 92.3637 159.067 92.1128L158.649 89.9103C158.649 89.9103 158.649 89.7151 158.649 89.6315L159.345 87.68C159.429 87.4012 159.736 87.2618 160.015 87.3454C160.293 87.4569 160.433 87.7357 160.349 88.0145L159.708 89.8267L160.126 91.8897C160.182 92.1685 159.987 92.4473 159.708 92.5031C159.68 92.5031 159.652 92.5031 159.596 92.5031V92.5309Z" fill="black"/>
<path d="M152.571 103.906C152.404 103.906 152.265 103.878 152.097 103.822C150.899 103.348 150.397 100.421 150.257 99.5567C150.229 99.3616 150.313 99.1664 150.48 99.0549C150.648 98.9434 150.871 98.9434 151.038 99.0549L154.857 101.202C154.857 101.202 155.08 101.397 155.108 101.536C155.136 101.676 155.108 101.815 155.053 101.954C154.83 102.317 153.742 103.962 152.543 103.962L152.571 103.906ZM151.512 100.477C151.791 101.703 152.181 102.707 152.488 102.819C152.766 102.93 153.352 102.4 153.826 101.787L151.512 100.477V100.477Z" fill="black"/>
<path d="M127.118 183.557C127.118 183.557 139.552 196.66 149.672 201.817C159.764 206.975 164.364 206.445 165.34 205.051C166.316 203.657 160.712 199.03 160.712 199.03C160.712 199.03 170.33 203.602 172.421 200.535C174.512 197.468 166.511 192.478 166.511 192.478C166.511 192.478 174.066 194.346 174.038 191.056C174.038 187.766 158.565 179.904 158.565 179.904C158.565 179.904 167.431 181.243 167.459 178.706C167.459 176.169 156.558 169.561 151.624 169.227C146.689 168.892 134.422 168.056 134.422 168.056L127.146 183.585L127.118 183.557Z" fill="#F77E6D"/>
<path d="M127.312 116.145C127.312 116.145 76.8232 124.062 72.7807 157.684C68.6546 191.92 132.832 192.366 132.832 192.366L143.984 163.734L104.647 135.325L127.312 116.117V116.145Z" fill="#AF4D04"/>
<path d="M132.61 161.002C132.61 161.002 132.359 160.947 132.247 160.863C132.108 160.724 118.113 147.815 109.582 145.223C109.303 145.139 109.136 144.832 109.219 144.554C109.303 144.275 109.61 144.108 109.888 144.191C118.642 146.868 132.387 159.553 132.972 160.082C133.195 160.277 133.195 160.612 133 160.835C132.889 160.947 132.749 161.002 132.61 161.002V161.002Z" fill="white"/>
<path d="M122.963 152.89C122.796 152.89 122.657 152.834 122.545 152.695C120.482 150.158 115.826 144.08 116.802 142.407C116.969 142.101 117.36 141.794 118.168 141.933C122.071 142.602 123.354 151.301 123.465 152.304C123.493 152.527 123.354 152.778 123.158 152.862C123.103 152.89 123.019 152.918 122.935 152.918L122.963 152.89ZM117.806 142.965C117.443 143.578 119.339 146.784 122.071 150.353C121.43 147.426 120.092 143.355 118.001 142.993C117.917 142.993 117.861 142.993 117.806 142.993V142.965Z" fill="white"/>
<path d="M113.261 211.352C112.787 211.352 112.313 211.324 111.812 211.213C111.533 211.157 111.338 210.878 111.365 210.599C111.421 210.32 111.7 210.125 111.979 210.153C118.391 211.268 123.186 203.379 123.214 203.295C123.381 203.044 123.688 202.96 123.939 203.1C124.19 203.239 124.273 203.574 124.134 203.825C123.939 204.159 119.59 211.324 113.233 211.324L113.261 211.352Z" fill="#507849"/>
<path d="M149.449 122.25C145.964 122.25 141.392 121.191 137.544 116.814C137.349 116.591 137.377 116.256 137.6 116.061C137.823 115.866 138.158 115.894 138.353 116.117C145.211 123.923 154.383 120.466 154.467 120.41C154.746 120.299 155.052 120.438 155.164 120.717C155.275 120.996 155.136 121.303 154.857 121.414C154.802 121.414 152.571 122.278 149.449 122.278V122.25Z" fill="white"/>
<path d="M166.483 193.008C166.483 193.008 166.343 193.008 166.288 192.98L154.467 188.101C154.188 187.989 154.077 187.683 154.188 187.404C154.3 187.125 154.606 187.014 154.885 187.125L166.706 192.004C166.985 192.116 167.096 192.422 166.985 192.701C166.901 192.896 166.706 193.036 166.483 193.036V193.008Z" fill="black"/>
<path d="M160.712 199.559C160.712 199.559 160.572 199.559 160.517 199.531L148.557 194.847C148.278 194.736 148.138 194.429 148.25 194.15C148.361 193.872 148.668 193.732 148.947 193.844L160.907 198.527C161.186 198.639 161.325 198.946 161.214 199.224C161.13 199.447 160.935 199.559 160.712 199.559Z" fill="black"/>
<path d="M158.537 180.434C158.537 180.434 158.398 180.434 158.314 180.378L154.718 178.817C154.439 178.706 154.328 178.399 154.439 178.12C154.551 177.841 154.857 177.73 155.136 177.841L158.732 179.403C159.011 179.514 159.123 179.821 159.011 180.1C158.928 180.295 158.732 180.434 158.509 180.434H158.537Z" fill="black"/>
</g>
<path fill-rule="evenodd" clip-rule="evenodd" d="M229.854 390.128C229.854 390.061 229.855 389.994 229.855 389.927C229.855 365.667 210.188 346 185.927 346C161.667 346 142 365.667 142 389.927C142 389.994 142 390.061 142 390.128L229.854 390.128Z" fill="#E9FAB0"/>
</g>
<defs>
<clipPath id="clip0_1_2">
<rect width="390" height="390" fill="white"/>
</clipPath>
</defs>
</svg>
