<svg width="391" height="413" viewBox="0 0 391 413" fill="none" xmlns="http://www.w3.org/2000/svg">
<path fill-rule="evenodd" clip-rule="evenodd" d="M41.566 153.875C41.5022 154.11 41.4388 154.344 41.376 154.579C18.5767 239.666 69.0716 327.126 154.159 349.925C239.247 372.725 326.707 322.23 349.506 237.142C349.569 236.907 349.631 236.673 349.693 236.438L41.566 153.875Z" fill="#E9FAB0"/>
<mask id="mask0_1_172" style="mask-type:alpha" maskUnits="userSpaceOnUse" x="35" y="36" width="320" height="320">
<path d="M349.507 237.142C326.707 322.23 239.248 372.724 154.16 349.925C69.0719 327.126 18.577 239.666 41.3762 154.578C64.1755 69.4906 151.635 18.9957 236.723 41.7949C321.811 64.5941 372.306 152.054 349.507 237.142Z" fill="#E9FAB0"/>
</mask>
<g mask="url(#mask0_1_172)">
<path d="M286.347 265.181C286.347 265.181 267.125 242.289 271.568 243.512C276.006 244.728 279.191 246.599 279.191 246.599C279.191 246.599 264.705 223.026 269.16 225.193C273.614 227.36 278.417 233.003 278.417 233.003C278.417 233.003 274.077 211.859 277.928 217.192C281.782 222.531 282.562 236.123 282.562 236.123C282.562 236.123 286.233 224.383 286.909 228.8C287.588 233.223 284.567 246.221 284.567 246.221C284.567 246.221 287.978 240.173 288.343 244.6C288.708 249.026 287.93 264.531 287.93 264.531L286.353 265.178L286.347 265.181Z" fill="#5EA27F"/>
<path d="M284.752 264.269C284.752 264.269 288.354 227.994 290.638 230.973C292.918 233.946 293.49 240.69 293.49 240.69C293.49 240.69 297.761 219.902 299.541 222.632C301.321 225.361 300.889 231.613 300.889 231.613C300.889 231.613 311.659 210.756 312.24 218.748C312.827 226.736 298.982 240.628 298.982 240.628C298.982 240.628 310.881 231.759 308.442 237.531C306.002 243.303 291.836 250.202 291.836 250.202C291.836 250.202 303.528 245.33 300.076 249.867C296.631 254.401 290.897 255.709 289.186 259.474C287.475 263.239 286.251 265.249 286.251 265.249L284.742 264.267L284.752 264.269Z" fill="#8AC19A"/>
<path d="M288.972 262.813C288.972 262.813 268.368 255.727 266.844 283.115C265.314 310.506 294.345 379.551 305.689 374.419C317.04 369.283 300.705 335.233 303.54 302.361C306.375 269.488 303.572 263.12 288.976 262.82L288.972 262.813Z" fill="#E48A67"/>
<path d="M308.786 354.726C303.757 353.33 297.399 349.127 291.452 341.361C294.454 339.217 300.18 338.008 300.18 338.008C295.34 337.552 291.907 338.303 289.789 339.074C287.728 336.096 285.738 332.671 283.903 328.757C288.433 325.886 298.217 325.396 298.217 325.396C290.357 324.11 285.495 325.666 283.017 326.803C281.272 322.825 279.681 318.384 278.319 313.435C282.95 310.63 297.498 309.477 297.498 309.477C287.275 308.013 280.549 309.507 277.541 310.479C276.18 304.997 275.274 299.966 274.695 295.37C282.209 290.718 299.343 293.894 299.343 293.894C288.37 288.342 278.525 290.808 274.358 292.351C273.005 278.423 274.848 268.898 276.567 263.447C271.885 265.691 267.519 271.061 266.848 283.121C265.318 310.512 294.349 379.557 305.693 374.425C310.484 372.261 310.338 364.938 308.79 354.732L308.786 354.726Z" fill="#DA7252"/>
<path d="M280.927 134.788C280.927 134.788 273.559 119.18 253.561 122.118C233.563 125.057 216.26 156.045 235.106 180.177C253.942 204.308 278.396 204.571 296.697 189.3C314.999 174.028 318.093 139.249 280.927 134.788V134.788Z" fill="#F2513B"/>
<path d="M244.724 179.025C226.994 156.317 241.276 127.542 259.686 121.774C257.79 121.692 255.748 121.792 253.561 122.118C233.563 125.057 216.26 156.045 235.106 180.177C248.362 197.153 264.395 202.322 279.103 198.568C267.253 198.405 255.131 192.356 244.724 179.025Z" fill="#D84435"/>
<path d="M283.05 110.211C283.05 110.211 284.602 107.881 285.981 109.685C287.36 111.49 290.091 115.489 289.248 122.862C288.404 130.244 288.467 131.886 288.467 131.886C288.467 131.886 296.062 138.288 302.74 136.511C302.74 136.511 299.138 141.689 291.289 139.567C291.289 139.567 291.153 144.328 296.597 147.475C296.597 147.475 287.279 148.944 281.744 138.279C281.744 138.279 273.668 141.072 266.754 137.68C266.754 137.68 273.714 136.465 276.899 131.65C276.899 131.65 267.507 130.453 267.344 120.278C267.344 120.278 274.449 128.222 282.96 128.503C282.96 128.503 286.707 120.985 285.428 116.215C284.157 111.445 283.05 110.202 283.05 110.202V110.211Z" fill="#507849"/>
<g style="mix-blend-mode:soft-light">
<path d="M294.547 162.919C294.574 157.233 302.922 156.743 303.611 162.393C303.62 162.483 303.629 162.583 303.647 162.674C304.655 172.269 291.734 191.277 284.085 189.862C276.436 188.447 294.519 175.143 294.538 166.147C294.538 164.977 294.538 163.907 294.547 162.919Z" fill="white"/>
</g>
<path d="M113.153 249.209C119.922 246.352 126.183 241.546 130.402 236.658C138.877 226.846 140.229 212.481 137.398 199.839C135.91 193.201 133.369 186.726 129.359 181.23C119.06 167.119 101.076 159.247 83.6368 158.105C72.8755 157.397 61.0345 160.354 51.979 166.212C37.1709 175.789 30.52 196.284 38.2507 213.415C45.3372 229.113 56.8515 226.202 69.5909 233.221C80.0073 238.961 86.2863 250.551 99.3613 251.739C103.871 252.147 108.616 251.114 113.135 249.209H113.153Z" fill="#F4F4F4"/>
<path d="M38.2506 213.415C45.3371 229.113 56.8515 226.202 69.5908 233.221C80.0073 238.961 86.2862 250.551 99.3612 251.739C103.871 252.147 108.616 251.114 113.135 249.209C115.821 248.076 118.425 246.634 120.847 245.001C90.4147 243.414 55.0912 220.071 48.9393 200.954C44.5568 187.36 49.7015 173.639 54.7645 164.534C53.8027 165.06 52.8591 165.614 51.9517 166.203C37.1709 175.789 30.5199 196.284 38.2506 213.415Z" fill="#E3E3E3"/>
<path d="M106.765 229.811C117.83 229.811 126.8 220.846 126.8 209.787C126.8 198.729 117.83 189.764 106.765 189.764C95.7005 189.764 86.7308 198.729 86.7308 209.787C86.7308 220.846 95.7005 229.811 106.765 229.811Z" fill="#EBB64A"/>
<path d="M111.91 225.848C100.849 225.848 91.8755 216.888 91.8755 205.824C91.8755 200.528 93.9352 195.713 97.3015 192.13C91.0045 195.504 86.7308 202.142 86.7308 209.778C86.7308 220.833 95.6955 229.802 106.765 229.802C112.527 229.802 117.717 227.363 121.374 223.472C118.561 224.987 115.34 225.839 111.919 225.839L111.91 225.848Z" fill="#E3A63B"/>
<path d="M121.773 211.021C119.051 213.143 119.459 206.876 115.893 202.324C112.327 197.771 106.148 196.647 108.87 194.525C111.592 192.403 116.683 194.37 120.249 198.923C123.815 203.475 124.495 208.899 121.773 211.021Z" fill="white"/>
<path d="M79.9768 307.48C79.9768 307.48 69.7237 314.826 63.6716 310.772C55.2694 305.15 54.8248 295.102 59.5612 284.518C64.2886 273.935 59.1983 270.135 59.1983 270.135C59.1983 270.135 64.2795 271.568 65.6043 273.092C65.6043 273.092 63.4538 268.766 61.5574 266.444C61.5574 266.444 65.6405 267.995 66.6659 270.29C66.6659 270.29 66.2848 262.844 69.9233 260.577C69.9233 260.577 67.6549 267.306 69.0794 270.48C69.0794 270.48 69.6692 266.617 71.7108 265.492C71.7108 265.492 69.6601 268.947 72.3006 271.994C74.941 275.042 83.9057 275.676 89.8307 280.855C95.7558 286.024 98.5777 297.033 93.5691 300.969C88.5604 304.905 84.3684 305.939 84.3684 305.939L89.123 308.043L84.0418 307.571L83.334 312.124L82.091 308.877C82.091 308.877 79.2419 312.904 79.8044 311.806C80.367 310.709 79.9859 307.489 79.9859 307.489L79.9768 307.48Z" fill="#9A4478"/>
<path d="M59.5612 284.527C54.8339 295.111 55.2694 305.159 63.6716 310.781C69.7237 314.835 79.9768 307.489 79.9768 307.489C79.9768 307.489 80.3579 310.7 79.7954 311.806C79.2328 312.913 82.0819 308.877 82.0819 308.877L83.325 312.124L84.0327 307.571L89.1139 308.043L84.3594 305.939C84.3594 305.939 88.5514 304.905 93.56 300.969C98.5686 297.033 95.7376 286.024 89.8217 280.855C85.8111 277.354 80.4124 275.93 76.5198 274.434C78.3254 276.955 80.8479 280.655 81.2834 281.226C80.6573 280.737 75.431 278.497 75.431 278.497C75.431 278.497 75.8211 279.358 78.5976 283.811C81.3742 288.264 79.1783 294.05 79.1783 294.05C79.1783 294.05 72.2189 292.118 69.2065 289.452C66.194 286.786 65.6496 280.945 65.6496 280.945C65.6496 280.945 65.1597 283.884 65.3683 288.971C65.577 294.059 69.4878 296.707 69.4878 296.707C69.4878 296.707 65.3139 295.21 63.8349 291.338C62.3559 287.466 64.5154 283.911 63.3631 277.3C62.365 271.595 59.9877 270.398 59.3526 270.181C59.2527 270.153 59.1983 270.135 59.1983 270.135C59.1983 270.135 64.2886 273.944 59.5612 284.518V284.527Z" fill="#883562"/>
<path d="M91.3823 297.904C85.1851 305.186 74.0336 307.934 66.9018 304.606C63.0818 302.819 59.5068 297.251 57.0025 292.454C55.5779 299.944 57.4199 306.583 63.6807 310.772C69.7327 314.826 79.9859 307.48 79.9859 307.48C79.9859 307.48 80.367 310.691 79.8044 311.797C79.2419 312.904 82.091 308.868 82.091 308.868L83.334 312.115L84.0418 307.562L89.123 308.034L84.3684 305.93C84.3684 305.93 88.5604 304.896 93.5691 300.96C95.901 299.128 96.527 295.764 95.9463 292.172C94.6488 293.895 93.1335 295.845 91.3823 297.904V297.904Z" fill="#7C3857"/>
<path d="M117.606 300.76C116.517 300.28 115.328 300.089 114.149 300.234C111.862 300.506 108.033 301.731 106.3 306.746C103.732 314.155 97.4624 324.974 91.4829 331.522C85.5034 338.069 94.9036 337.788 106.581 329.817C118.268 321.845 122.251 312.441 122.251 307.036C122.251 303.427 119.466 301.595 117.606 300.769V300.76Z" fill="#CC4249"/>
<path d="M120.564 302.783C120.001 306.864 117.851 312.922 111.926 320.512C107.371 326.352 101.364 327.051 95.9562 325.926C94.4863 327.976 92.98 329.88 91.4829 331.512C85.5034 338.06 94.9036 337.779 106.581 329.808C118.268 321.836 122.251 312.432 122.251 307.027C122.251 305.186 121.526 303.807 120.564 302.783Z" fill="#BD303B"/>
<path d="M118.441 289.497C118.441 289.497 119.484 295.618 118.214 297.931C116.943 300.243 111.046 299.318 111.046 299.663C111.046 300.008 113.931 301.858 114.856 301.858C115.782 301.858 114.394 306.483 115.782 306.129C117.17 305.784 119.021 303.127 119.021 303.127C119.021 303.127 121.907 306.011 122.832 304.859C123.758 303.708 120.518 304.515 120.518 300.008C120.518 295.501 119.366 289.035 119.366 289.035L118.441 289.497Z" fill="#5EA27F"/>
<path d="M190.614 160.309C191.286 159.33 191.676 158.187 191.758 156.999C191.903 154.696 191.377 150.715 186.758 148.112C179.926 144.267 170.398 136.159 165.027 129.104C159.655 122.048 158.249 131.344 164.002 144.258C169.754 157.172 178.292 162.785 183.619 163.746C187.175 164.39 189.48 161.978 190.623 160.3L190.614 160.309Z" fill="#D4E86D"/>
<path d="M188.092 162.858C184.181 161.57 178.601 158.378 172.186 151.186C167.259 145.663 167.64 139.633 169.718 134.509C167.967 132.695 166.361 130.872 165.018 129.104C159.646 122.048 158.24 131.344 163.992 144.258C169.745 157.172 178.283 162.785 183.61 163.746C185.424 164.073 186.912 163.61 188.083 162.849L188.092 162.858Z" fill="#B5CD5A"/>
<path d="M201.548 163.157C201.548 163.157 195.333 163.084 193.291 161.416C191.24 159.747 193.209 154.124 192.874 154.061C192.529 153.998 190.197 156.51 190.034 157.416C189.87 158.323 185.569 156.138 185.66 157.562C185.751 158.985 188.037 161.28 188.037 161.28C188.037 161.28 184.68 163.601 185.651 164.717C186.622 165.832 186.404 162.504 190.841 163.311C195.278 164.118 201.847 164.145 201.847 164.145L201.557 163.157H201.548Z" fill="#5EA27F"/>
<path d="M146.913 304.279C148.256 294.739 147.639 284.872 145.38 275.468C141.714 260.214 145.598 246.176 155.76 246.176C163.427 246.176 166.748 252.887 166.748 252.887C166.748 252.887 161.994 213.827 178.961 213.827C191.583 213.827 195.448 230.305 196.056 227.866C196.664 225.426 194.831 189.414 211.935 197.966C229.029 206.509 223.54 239.465 223.54 239.465C223.54 239.465 235.145 222.987 238.802 243.129C242.467 263.27 213.768 286.459 213.768 286.459C213.768 286.459 233.92 268.149 233.303 288.291C232.695 308.433 191.174 318.191 191.174 318.191C191.174 318.191 205.828 319.415 194.84 329.173C186.393 336.673 173.363 333.245 163.346 336.174C151.214 339.72 139.99 345.687 128.721 351.282C122.887 354.175 116.853 357.041 110.365 357.603C108.523 357.766 106.59 357.721 104.948 356.869C103.306 356.016 102.063 354.184 102.408 352.371C102.843 350.14 105.275 348.979 107.407 348.19C118.622 344.027 130.871 339.865 137.649 330.007C139.564 327.223 140.934 324.112 142.277 321.011C144.582 315.669 146.106 310.029 146.913 304.27V304.279Z" fill="#5EA27F"/>
<path d="M198.515 321.401C196.909 318.662 191.184 318.181 191.184 318.181C191.184 318.181 191.646 318.073 192.472 317.855C192.535 317.837 192.608 317.819 192.672 317.801C194.16 317.402 196.673 316.694 199.74 315.669C200.194 315.515 200.656 315.361 201.128 315.198C201.772 314.971 202.435 314.735 203.115 314.49C203.941 314.191 204.785 313.874 205.647 313.529C206.019 313.384 206.4 313.23 206.781 313.076C208.65 312.323 210.574 311.48 212.497 310.555C212.833 310.391 213.16 310.228 213.495 310.065C223.449 305.113 233.031 297.877 233.321 288.282C233.339 287.801 233.33 287.357 233.321 286.931C233.321 286.849 233.321 286.767 233.321 286.695C233.312 286.287 233.285 285.897 233.258 285.525C233.258 285.452 233.24 285.38 233.24 285.307C233.203 284.935 233.158 284.573 233.103 284.237C233.103 284.228 233.103 284.219 233.103 284.21C233.049 283.883 232.986 283.575 232.904 283.276C232.886 283.221 232.877 283.158 232.858 283.104C232.786 282.822 232.704 282.55 232.604 282.305C232.586 282.251 232.568 282.206 232.541 282.151C232.441 281.897 232.341 281.662 232.232 281.444C232.232 281.426 232.214 281.417 232.214 281.408C232.105 281.199 231.987 281.009 231.86 280.827C231.833 280.791 231.815 280.755 231.788 280.718C231.661 280.546 231.525 280.383 231.389 280.238C231.361 280.202 231.325 280.174 231.298 280.138C231.153 279.993 231.007 279.857 230.844 279.739C230.826 279.73 230.817 279.721 230.799 279.712C230.654 279.603 230.49 279.503 230.336 279.422C230.3 279.404 230.263 279.385 230.236 279.367C230.073 279.286 229.901 279.213 229.728 279.15C229.683 279.131 229.646 279.122 229.601 279.104C229.42 279.05 229.238 278.995 229.048 278.959C229.02 278.959 229.002 278.959 228.975 278.95C228.803 278.923 228.621 278.896 228.44 278.887C228.394 278.887 228.358 278.887 228.313 278.878C228.122 278.868 227.922 278.868 227.723 278.878C227.668 278.878 227.623 278.878 227.569 278.878C227.369 278.887 227.16 278.905 226.952 278.932C226.915 278.932 226.888 278.941 226.852 278.95C226.661 278.977 226.462 279.014 226.271 279.05C226.226 279.059 226.18 279.068 226.135 279.077C225.926 279.122 225.709 279.177 225.5 279.24C225.445 279.258 225.391 279.267 225.336 279.286C225.119 279.349 224.901 279.422 224.683 279.494C224.647 279.503 224.611 279.521 224.574 279.53C224.375 279.603 224.175 279.676 223.966 279.757C223.921 279.775 223.876 279.793 223.83 279.812C223.613 279.902 223.395 279.993 223.177 280.093C223.123 280.12 223.068 280.147 223.014 280.165C222.796 280.265 222.578 280.374 222.36 280.483C222.324 280.501 222.288 280.519 222.251 280.537C222.052 280.637 221.843 280.746 221.644 280.855C221.607 280.873 221.562 280.9 221.526 280.918C221.308 281.036 221.09 281.163 220.881 281.281C220.836 281.308 220.782 281.335 220.736 281.371C220.518 281.498 220.31 281.625 220.101 281.752C220.074 281.77 220.047 281.789 220.019 281.807C219.82 281.934 219.62 282.061 219.421 282.188C219.393 282.206 219.366 282.224 219.339 282.242C219.13 282.378 218.921 282.514 218.722 282.65C218.686 282.677 218.649 282.695 218.613 282.723C218.413 282.859 218.205 283.004 218.014 283.14C218.005 283.149 217.987 283.158 217.978 283.167C217.778 283.312 217.579 283.448 217.388 283.593C217.388 283.593 217.37 283.602 217.37 283.611C217.17 283.756 216.989 283.893 216.798 284.029C216.78 284.038 216.762 284.056 216.753 284.065C216.19 284.491 215.682 284.89 215.256 285.235C215.256 285.235 215.247 285.244 215.238 285.253C215.319 285.189 215.392 285.117 215.483 285.044C215.573 284.963 215.664 284.89 215.764 284.799C215.909 284.663 216.072 284.527 216.236 284.373C216.317 284.301 216.39 284.237 216.472 284.156C216.726 283.929 216.989 283.684 217.27 283.43C217.334 283.376 217.397 283.312 217.461 283.258C217.687 283.049 217.914 282.831 218.159 282.605C218.259 282.505 218.368 282.405 218.468 282.305C218.676 282.106 218.894 281.897 219.112 281.689C219.23 281.571 219.357 281.453 219.484 281.326C219.702 281.117 219.92 280.9 220.137 280.682C220.264 280.555 220.4 280.419 220.537 280.283C220.772 280.047 221.008 279.812 221.244 279.567C221.371 279.44 221.498 279.304 221.634 279.168C221.907 278.887 222.179 278.605 222.451 278.315C222.551 278.206 222.66 278.098 222.76 277.989C223.522 277.173 224.311 276.311 225.11 275.413C225.219 275.286 225.327 275.159 225.436 275.032C225.718 274.706 226.008 274.37 226.298 274.035C226.434 273.872 226.571 273.708 226.707 273.545C226.97 273.228 227.233 272.919 227.496 272.593C227.641 272.412 227.786 272.239 227.932 272.058C228.195 271.731 228.449 271.405 228.703 271.078C228.839 270.897 228.984 270.725 229.12 270.543C229.392 270.19 229.656 269.827 229.928 269.473C230.046 269.31 230.164 269.156 230.282 268.993C230.617 268.53 230.953 268.049 231.289 267.578C231.334 267.514 231.37 267.46 231.416 267.396C231.788 266.852 232.151 266.299 232.514 265.746C232.595 265.619 232.677 265.483 232.759 265.347C233.022 264.93 233.285 264.504 233.539 264.077C233.657 263.887 233.766 263.687 233.875 263.497C234.093 263.125 234.31 262.753 234.51 262.372C234.628 262.155 234.746 261.946 234.855 261.729C235.045 261.366 235.236 260.994 235.426 260.631C235.535 260.414 235.644 260.196 235.753 259.969C235.934 259.588 236.107 259.207 236.279 258.827C236.37 258.618 236.47 258.409 236.561 258.201C236.751 257.765 236.923 257.321 237.096 256.877C237.15 256.723 237.223 256.568 237.277 256.423C237.495 255.825 237.704 255.226 237.894 254.628C237.931 254.519 237.958 254.41 237.985 254.301C238.13 253.812 238.266 253.322 238.393 252.832C238.448 252.624 238.484 252.424 238.529 252.215C238.62 251.816 238.702 251.426 238.774 251.027C238.82 250.792 238.847 250.565 238.883 250.329C238.938 249.957 238.992 249.585 239.029 249.205C239.056 248.969 239.074 248.733 239.092 248.488C239.119 248.116 239.137 247.735 239.147 247.364C239.147 247.137 239.165 246.901 239.165 246.674C239.165 246.266 239.147 245.867 239.119 245.468C239.11 245.269 239.101 245.078 239.083 244.879C239.029 244.28 238.956 243.691 238.847 243.101C238.738 242.512 238.629 241.959 238.502 241.433C238.502 241.405 238.493 241.387 238.484 241.36C238.366 240.852 238.239 240.372 238.112 239.918C238.112 239.891 238.094 239.855 238.085 239.818C237.958 239.374 237.822 238.957 237.686 238.567C237.677 238.54 237.667 238.503 237.649 238.476C237.513 238.086 237.368 237.724 237.223 237.379C237.214 237.352 237.205 237.325 237.187 237.306C237.032 236.962 236.878 236.653 236.724 236.354C236.715 236.336 236.706 236.318 236.697 236.3C236.533 236.01 236.37 235.738 236.198 235.484C236.198 235.475 236.179 235.465 236.179 235.447C236.007 235.193 235.835 234.967 235.653 234.758C235.653 234.758 235.653 234.758 235.644 234.749C235.463 234.54 235.272 234.35 235.091 234.187C218.849 256.369 163.745 329.2 123.222 353.894C125.091 353.069 126.933 352.162 128.748 351.264C140.018 345.669 151.242 339.702 163.373 336.156C166.875 335.131 170.75 334.886 174.66 334.677C181.81 333.943 188.498 333.934 193.724 330.08C193.769 330.043 193.824 330.007 193.869 329.971C194.205 329.717 194.541 329.445 194.867 329.164C197.272 327.023 198.451 325.3 198.823 323.904C198.932 323.505 198.969 323.133 198.95 322.788C198.932 322.444 198.86 322.117 198.751 321.827C198.696 321.682 198.624 321.537 198.542 321.401H198.515Z" fill="#508C6F"/>
<path d="M162.121 324.212C163.346 321.773 191.428 305.295 198.143 301.023C204.857 296.752 179.215 304.687 179.215 304.687C179.215 304.687 188.371 299.191 203.025 285.77C217.678 272.348 227.451 253.422 225.618 253.422C225.618 253.422 222.914 257.221 215.582 267.596C208.251 277.971 191.428 290.359 188.988 289.742C186.547 289.134 200.584 273.554 206.073 254.029C211.572 234.504 207.298 219.858 207.298 219.858C207.298 219.858 209.158 232.672 203.052 251.59C196.945 270.507 186.175 284.827 185.476 273.863C184.406 257.058 181.048 242.439 181.048 242.439C181.048 242.439 181.048 257.693 179.823 276.619C178.598 295.537 170.051 305.304 170.051 301.032C170.051 296.761 167.61 275.404 167.61 275.404C167.61 275.404 166.385 288.826 161.504 307.752C159.435 315.769 153.437 322.716 147.739 328.447C141.769 334.469 136.379 338.287 128.304 338.849C122.025 342.93 114.512 345.578 107.398 348.208C105.266 348.997 102.834 350.158 102.398 352.389C102.045 354.202 103.297 356.034 104.939 356.887C106.581 357.739 108.514 357.776 110.356 357.621C116.844 357.05 122.878 354.193 128.712 351.3C132.278 349.532 135.844 347.718 139.437 345.959C145.362 339.248 151.459 334.877 160.406 332.129C167.383 329.989 174.742 328.973 181.656 326.67C185.322 325.445 160.896 326.67 162.121 324.23V324.212Z" fill="#6CBA8E"/>
<path d="M75.9671 325.11C75.9671 327.64 73.9164 329.699 71.3758 329.699C68.8352 329.699 66.7846 327.649 66.7846 325.11C66.7846 322.571 68.8352 320.521 71.3758 320.521C73.9164 320.521 75.9671 322.571 75.9671 325.11Z" fill="#5EA27F"/>
<path d="M133.267 289.923C133.267 292.036 131.552 293.741 129.447 293.741C127.342 293.741 125.627 292.027 125.627 289.923C125.627 287.819 127.342 286.105 129.447 286.105C131.552 286.105 133.267 287.819 133.267 289.923Z" fill="#E3A63B"/>
<g clip-path="url(#clip0_1_172)">
<path d="M235.66 250.01C235.66 252.57 233.58 254.65 231.02 254.65C228.46 254.65 226.38 252.57 226.38 250.01C226.38 247.45 228.46 245.37 231.02 245.37C233.58 245.37 235.66 247.45 235.66 250.01Z" fill="#5EA27F"/>
<path d="M254.25 209.73C254.25 211.82 252.55 213.52 250.46 213.52C248.37 213.52 246.67 211.82 246.67 209.73C246.67 207.64 248.37 205.94 250.46 205.94C252.55 205.94 254.25 207.64 254.25 209.73Z" fill="#E3A63B"/>
<path d="M131.2 133.79C131.2 135.89 129.5 137.58 127.41 137.58C125.32 137.58 123.62 135.88 123.62 133.79C123.62 131.7 125.32 130 127.41 130C129.5 130 131.2 131.7 131.2 133.79Z" fill="#6CBA8E"/>
<path d="M114.27 164.87C114.27 167.43 112.19 169.51 109.63 169.51C107.07 169.51 104.99 167.43 104.99 164.87C104.99 162.31 107.07 160.23 109.63 160.23C112.19 160.23 114.27 162.31 114.27 164.87Z" fill="#D64B4D"/>
<path d="M182.55 215.87C183.948 215.87 185.08 214.737 185.08 213.34C185.08 211.943 183.948 210.81 182.55 210.81C181.153 210.81 180.02 211.943 180.02 213.34C180.02 214.737 181.153 215.87 182.55 215.87Z" fill="#D64B4D"/>
</g>
<g clip-path="url(#clip1_1_172)">
<path d="M122.49 157.18C122.49 157.18 130.39 165.7 118.52 178.4C106.65 191.1 103.97 198.41 103.97 198.41C103.97 198.41 90.5005 186.96 94.8705 171.78C99.2405 156.6 112.15 151.68 122.49 157.18Z" fill="#508C6F"/>
<path d="M122.49 157.18C118.83 159.12 115.84 161.3 113.39 163.6L105.15 164.16L111.89 165.1C110.34 166.74 109.06 168.42 107.98 170.11L99.8605 171.99L107.18 171.44C106.12 173.29 105.31 175.14 104.69 176.93L98.5805 179.2L104.36 177.96C101.84 186.1 103.2 192.77 103.2 192.77C103.63 188.41 104.44 184.52 105.49 181.07L108.07 185.88L105.91 179.71C106.93 176.63 108.15 173.92 109.45 171.54C110.32 173.63 112.91 179.86 113.19 180.39C113.46 180.89 110.93 173.85 109.84 170.83C111.16 168.51 112.55 166.53 113.92 164.86C114.54 166.74 116.99 174.21 117.44 175.18C117.9 176.16 115.25 166.4 114.61 164.03C118.79 159.16 122.49 157.17 122.49 157.17V157.18Z" fill="#5EA27F"/>
</g>
</g>
<path fill-rule="evenodd" clip-rule="evenodd" d="M238.854 412.267C238.854 412.201 238.854 412.134 238.854 412.067C238.854 387.806 219.188 368.14 194.927 368.14C170.667 368.14 151 387.806 151 412.067C151 412.134 151 412.201 151 412.267L238.854 412.267Z" fill="#E9FAB0"/>
<defs>
<clipPath id="clip0_1_172">
<rect width="149.25" height="238.45" fill="white" transform="translate(105 130)"/>
</clipPath>
<clipPath id="clip1_1_172">
<rect width="31.07" height="43.42" fill="white" transform="translate(94.0005 155)"/>
</clipPath>
</defs>
</svg>
